<!DOCTYPE svg PUBLIC "-//W3C//DTD SVG 1.1//EN" "http://www.w3.org/Graphics/SVG/1.1/DTD/svg11.dtd">
<!-- Uploaded to: SVG Repo, www.svgrepo.com, Transformed by: SVG Repo Mixer Tools -->
<svg fill="#e6e6e6" width="64px" height="64px" viewBox="-2.4 -2.4 28.80 28.80" xmlns="http://www.w3.org/2000/svg" stroke="#e6e6e6">
<g id="SVGRepo_bgCarrier" stroke-width="0"/>
<g id="SVGRepo_tracerCarrier" stroke-linecap="round" stroke-linejoin="round"/>
<g id="SVGRepo_iconCarrier"> <g id="File_On" data-name="File On"> <path d="M19.485,7.35l-4.97-4.86a1.466,1.466,0,0,0-1.05-.43h-6.9a2.5,2.5,0,0,0-2.5,2.5V19.44a2.507,2.507,0,0,0,2.5,2.5h10.87a2.507,2.507,0,0,0,2.5-2.5V8.42A1.49,1.49,0,0,0,19.485,7.35Zm-1.27.15h-2.34a1.5,1.5,0,0,1-1.5-1.5V3.75Zm.72,11.94a1.5,1.5,0,0,1-1.5,1.5H6.565a1.5,1.5,0,0,1-1.5-1.5V4.56a1.5,1.5,0,0,1,1.5-1.5h6.81V6a2.5,2.5,0,0,0,2.5,2.5h3.06Z"/> </g> </g>
</svg>